%TF.GenerationSoftware,KiCad,Pcbnew,(6.0.11)*%
%TF.CreationDate,2023-05-16T20:57:38+09:00*%
%TF.ProjectId,gu34,67753334-2e6b-4696-9361-645f70636258,rev?*%
%TF.SameCoordinates,Original*%
%TF.FileFunction,Soldermask,Bot*%
%TF.FilePolarity,Negative*%
%FSLAX46Y46*%
G04 Gerber Fmt 4.6, Leading zero omitted, Abs format (unit mm)*
G04 Created by KiCad (PCBNEW (6.0.11)) date 2023-05-16 20:57:38*
%MOMM*%
%LPD*%
G01*
G04 APERTURE LIST*
G04 Aperture macros list*
%AMRoundRect*
0 Rectangle with rounded corners*
0 $1 Rounding radius*
0 $2 $3 $4 $5 $6 $7 $8 $9 X,Y pos of 4 corners*
0 Add a 4 corners polygon primitive as box body*
4,1,4,$2,$3,$4,$5,$6,$7,$8,$9,$2,$3,0*
0 Add four circle primitives for the rounded corners*
1,1,$1+$1,$2,$3*
1,1,$1+$1,$4,$5*
1,1,$1+$1,$6,$7*
1,1,$1+$1,$8,$9*
0 Add four rect primitives between the rounded corners*
20,1,$1+$1,$2,$3,$4,$5,0*
20,1,$1+$1,$4,$5,$6,$7,0*
20,1,$1+$1,$6,$7,$8,$9,0*
20,1,$1+$1,$8,$9,$2,$3,0*%
%AMRotRect*
0 Rectangle, with rotation*
0 The origin of the aperture is its center*
0 $1 length*
0 $2 width*
0 $3 Rotation angle, in degrees counterclockwise*
0 Add horizontal line*
21,1,$1,$2,0,0,$3*%
G04 Aperture macros list end*
%TA.AperFunction,Profile*%
%ADD10C,0.100000*%
%TD*%
%ADD11C,0.100000*%
%ADD12RotRect,1.300000X0.950000X250.000000*%
%ADD13C,3.400000*%
%ADD14C,1.700000*%
%ADD15C,2.000000*%
%ADD16RotRect,1.300000X0.950000X290.000000*%
%ADD17RotRect,1.300000X0.950000X225.000000*%
%ADD18RotRect,1.300000X0.950000X315.000000*%
%ADD19RotRect,1.300000X0.950000X293.000000*%
%ADD20RoundRect,0.400000X-0.900000X-0.400000X0.900000X-0.400000X0.900000X0.400000X-0.900000X0.400000X0*%
%ADD21RoundRect,0.400050X-0.899950X-0.400050X0.899950X-0.400050X0.899950X0.400050X-0.899950X0.400050X0*%
%ADD22RoundRect,0.400000X-0.400000X-0.900000X0.400000X-0.900000X0.400000X0.900000X-0.400000X0.900000X0*%
%ADD23RoundRect,0.393700X-0.393700X-0.906300X0.393700X-0.906300X0.393700X0.906300X-0.393700X0.906300X0*%
%ADD24RotRect,1.300000X0.950000X247.000000*%
G04 APERTURE END LIST*
D10*
X210582773Y-81577077D02*
X211252397Y-83416855D01*
X88494956Y-108075051D02*
G75*
G03*
X89554561Y-110697548I1841044J-781449D01*
G01*
X95346573Y-113156111D02*
X103289125Y-116527525D01*
X78322834Y-25428801D02*
G75*
G03*
X75759393Y-26624187I-684034J-1879399D01*
G01*
X42954792Y-17793857D02*
G75*
G03*
X40391368Y-18989196I-684042J-1879383D01*
G01*
D11*
X166485012Y-105404977D02*
X165843422Y-104418288D01*
X165235255Y-103493247D01*
X164656430Y-102627865D01*
X164102870Y-101820152D01*
X163570495Y-101068122D01*
X163055227Y-100369784D01*
X162552988Y-99723150D01*
X162059698Y-99126231D01*
X161571279Y-98577040D01*
X161083652Y-98073587D01*
X160592739Y-97613884D01*
X160094461Y-97195942D01*
X159584739Y-96817772D01*
X159059494Y-96477386D01*
X158514648Y-96172795D01*
X157946123Y-95902011D01*
X157349839Y-95663045D01*
X156721718Y-95453908D01*
X156057681Y-95272612D01*
X155353649Y-95117168D01*
X154605545Y-94985587D01*
X153809288Y-94875882D01*
X152960801Y-94786062D01*
X152056005Y-94714140D01*
X151090820Y-94658127D01*
X150061169Y-94616035D01*
X148962973Y-94585874D01*
X147792153Y-94565656D01*
X146544630Y-94553393D01*
X145216326Y-94547096D01*
X143803162Y-94544776D01*
X142301060Y-94544445D01*
D10*
X241647326Y-17793851D02*
X209842120Y-29370000D01*
X148301060Y-86044445D02*
X142301060Y-86044445D01*
X36782901Y-84795311D02*
X40599548Y-74309162D01*
X78322819Y-25428843D02*
X93357901Y-30901165D01*
X244002572Y-74309162D02*
X228850905Y-79823917D01*
D11*
X127212923Y-49078253D02*
X127059566Y-50372382D01*
X126918517Y-51596863D01*
X126791366Y-52753624D01*
X126679703Y-53844590D01*
X126585120Y-54871688D01*
X126509208Y-55836845D01*
X126453558Y-56741987D01*
X126419761Y-57589040D01*
X126409407Y-58379931D01*
X126424088Y-59116586D01*
X126465395Y-59800932D01*
X126534919Y-60434895D01*
X126634251Y-61020401D01*
X126764981Y-61559378D01*
X126928701Y-62053752D01*
X127127002Y-62505448D01*
X127361475Y-62916394D01*
X127633710Y-63288516D01*
X127945300Y-63623740D01*
X128297834Y-63923993D01*
X128692904Y-64191201D01*
X129132100Y-64427291D01*
X129617015Y-64634190D01*
X130149238Y-64813823D01*
X130730361Y-64968117D01*
X131361975Y-65098999D01*
X132045670Y-65208394D01*
X132783039Y-65298230D01*
X133575671Y-65370434D01*
X134425157Y-65426930D01*
X135333090Y-65469647D01*
X136301060Y-65500510D01*
D10*
X210057037Y-85980237D02*
G75*
G03*
X211252397Y-83416855I-683937J1879337D01*
G01*
X136301060Y-65544445D02*
X136301060Y-65500510D01*
X168042215Y-131541016D02*
G75*
G03*
X170870642Y-131541016I1414214J1414215D01*
G01*
X113731478Y-131541016D02*
G75*
G03*
X116559905Y-131541016I1414214J1414215D01*
G01*
X195047559Y-110697548D02*
X189255547Y-113156111D01*
X74019347Y-81577077D02*
X73349723Y-83416855D01*
X148301060Y-65544445D02*
X148301060Y-86044445D01*
X89554561Y-110697548D02*
X95346573Y-113156111D01*
X40391368Y-18989196D02*
X18819580Y-78257197D01*
X94553246Y-33464590D02*
X93883621Y-35304368D01*
X189850290Y-93334940D02*
X196107106Y-108075076D01*
X118117153Y-105405006D02*
G75*
G03*
X118381403Y-107906670I1678447J-1087494D01*
G01*
X247819286Y-84795286D02*
G75*
G03*
X250382644Y-85990656I1879314J683886D01*
G01*
X264587195Y-80820622D02*
X250382644Y-85990656D01*
X93883621Y-35304368D02*
X125911108Y-46961420D01*
X206279301Y-25428843D02*
X191244219Y-30901165D01*
X136301060Y-86044445D02*
X142301060Y-86044445D01*
X103289125Y-116527525D02*
X102417769Y-117398880D01*
X20014925Y-80820622D02*
X34219476Y-85990656D01*
X191244209Y-30901138D02*
G75*
G03*
X190048874Y-33464590I683991J-1879362D01*
G01*
X182184351Y-120227307D02*
X170870642Y-131541016D01*
X156728507Y-117398880D02*
X166220717Y-107906670D01*
X94751830Y-93334940D02*
X88495014Y-108075076D01*
X168042215Y-131541016D02*
X156728507Y-120227307D01*
X210057053Y-85980280D02*
X189850290Y-93334940D01*
X148301060Y-65544445D02*
X148301060Y-65500510D01*
X189255547Y-113156111D02*
X181312995Y-116527525D01*
X94553328Y-33464620D02*
G75*
G03*
X93357901Y-30901165I-1879428J684020D01*
G01*
X182184357Y-120227313D02*
G75*
G03*
X182184351Y-117398880I-1414257J1414213D01*
G01*
X181312995Y-116527525D02*
X182184351Y-117398880D01*
X190048874Y-33464590D02*
X190718499Y-35304368D01*
X18819555Y-78257188D02*
G75*
G03*
X20014925Y-80820622I1879445J-684012D01*
G01*
X42954794Y-17793851D02*
X74760000Y-29370000D01*
X247819219Y-84795311D02*
X244002572Y-74309162D01*
X209842120Y-29370000D02*
X208842727Y-26624187D01*
X226287480Y-78628572D02*
X225398009Y-76184772D01*
X116559905Y-131541016D02*
X127873613Y-120227307D01*
X59204111Y-76184772D02*
X74019347Y-81577077D01*
X208842782Y-26624167D02*
G75*
G03*
X206279301Y-25428843I-1879382J-684033D01*
G01*
X244210828Y-18989168D02*
G75*
G03*
X241647326Y-17793851I-1879428J-684132D01*
G01*
X40599548Y-74309162D02*
X55751215Y-79823917D01*
X225398009Y-76184772D02*
X210582773Y-81577077D01*
X34219463Y-85990692D02*
G75*
G03*
X36782901Y-84795311I684037J1879392D01*
G01*
X136301060Y-65544445D02*
X136301060Y-86044445D01*
D11*
X157389197Y-49078253D02*
X157542553Y-50372382D01*
X157683602Y-51596863D01*
X157810753Y-52753624D01*
X157922416Y-53844590D01*
X158016999Y-54871688D01*
X158092911Y-55836845D01*
X158148561Y-56741987D01*
X158182358Y-57589040D01*
X158192712Y-58379931D01*
X158178031Y-59116586D01*
X158136724Y-59800932D01*
X158067200Y-60434895D01*
X157967868Y-61020401D01*
X157837138Y-61559378D01*
X157673418Y-62053752D01*
X157475117Y-62505448D01*
X157240644Y-62916394D01*
X156968409Y-63288516D01*
X156656819Y-63623740D01*
X156304285Y-63923993D01*
X155909215Y-64191201D01*
X155470019Y-64427291D01*
X154985104Y-64634190D01*
X154452881Y-64813823D01*
X153871758Y-64968117D01*
X153240144Y-65098999D01*
X152556449Y-65208394D01*
X151819080Y-65298230D01*
X151026448Y-65370434D01*
X150176962Y-65426930D01*
X149269029Y-65469647D01*
X148301060Y-65500510D01*
D10*
X244210752Y-18989196D02*
X265782540Y-78257197D01*
X127873613Y-117398880D02*
X118381403Y-107906670D01*
X127873619Y-120227313D02*
G75*
G03*
X127873613Y-117398880I-1414219J1414213D01*
G01*
X264587170Y-80820552D02*
G75*
G03*
X265782540Y-78257197I-683970J1879352D01*
G01*
X158691035Y-46961484D02*
G75*
G03*
X157389197Y-49078253I684065J-1879416D01*
G01*
X74760000Y-29370000D02*
X75759393Y-26624187D01*
X195047539Y-110697500D02*
G75*
G03*
X196107106Y-108075076I-781439J1841000D01*
G01*
X156728513Y-117398886D02*
G75*
G03*
X156728507Y-120227307I1414187J-1414214D01*
G01*
X166220677Y-107906630D02*
G75*
G03*
X166485012Y-105404977I-1414277J1414230D01*
G01*
D11*
X118117108Y-105404977D02*
X118758697Y-104418288D01*
X119366864Y-103493247D01*
X119945689Y-102627865D01*
X120499249Y-101820152D01*
X121031624Y-101068122D01*
X121546892Y-100369784D01*
X122049131Y-99723150D01*
X122542421Y-99126231D01*
X123030840Y-98577040D01*
X123518467Y-98073587D01*
X124009380Y-97613884D01*
X124507658Y-97195942D01*
X125017380Y-96817772D01*
X125542625Y-96477386D01*
X126087471Y-96172795D01*
X126655996Y-95902011D01*
X127252280Y-95663045D01*
X127880401Y-95453908D01*
X128544438Y-95272612D01*
X129248470Y-95117168D01*
X129996574Y-94985587D01*
X130792831Y-94875882D01*
X131641318Y-94786062D01*
X132546115Y-94714140D01*
X133511299Y-94658127D01*
X134540950Y-94616035D01*
X135639146Y-94585874D01*
X136809966Y-94565656D01*
X138057489Y-94553393D01*
X139385793Y-94547096D01*
X140798957Y-94544776D01*
X142301060Y-94544445D01*
D10*
X102417775Y-117398886D02*
G75*
G03*
X102417769Y-120227307I1414225J-1414214D01*
G01*
X55751241Y-79823845D02*
G75*
G03*
X58314640Y-78628572I684059J1879345D01*
G01*
X58314640Y-78628572D02*
X59204111Y-76184772D01*
X127212938Y-49078255D02*
G75*
G03*
X125911108Y-46961420I-1985838J237455D01*
G01*
X190718499Y-35304368D02*
X158691012Y-46961420D01*
X102417769Y-120227307D02*
X113731478Y-131541016D01*
X226287504Y-78628563D02*
G75*
G03*
X228850905Y-79823917I1879396J684063D01*
G01*
X74545067Y-85980280D02*
X94751830Y-93334940D01*
X73349724Y-83416855D02*
G75*
G03*
X74545067Y-85980280I1879376J-684045D01*
G01*
D12*
%TO.C,D2*%
X58737086Y-27342046D03*
X57522914Y-30677954D03*
%TD*%
D13*
%TO.C,SW18*%
X208340000Y-53540000D03*
D14*
X203171691Y-55421111D03*
X213508309Y-51658889D03*
D15*
X210357919Y-59084186D03*
X204941213Y-58820933D03*
%TD*%
D14*
%TO.C,SW33*%
X173329087Y-114950913D03*
X165550913Y-122729087D03*
D13*
X169440000Y-118840000D03*
D15*
X173611930Y-123011930D03*
X168591472Y-125062540D03*
%TD*%
D13*
%TO.C,SW7*%
X186790000Y-47350000D03*
D14*
X191958309Y-45468889D03*
X181621691Y-49231111D03*
D15*
X188807919Y-52894186D03*
X183391213Y-52630933D03*
%TD*%
D12*
%TO.C,D3*%
X77217086Y-29242046D03*
X76002914Y-32577954D03*
%TD*%
D16*
%TO.C,D30*%
X245082914Y-70822046D03*
X246297086Y-74157954D03*
%TD*%
D17*
%TO.C,D32*%
X113925115Y-109024885D03*
X111414885Y-111535115D03*
%TD*%
D14*
%TO.C,SW16*%
X181508309Y-68048889D03*
D13*
X176340000Y-69930000D03*
D14*
X171171691Y-71811111D03*
D15*
X178357919Y-75474186D03*
X172941213Y-75210933D03*
%TD*%
D12*
%TO.C,D1*%
X41837086Y-21562046D03*
X40622914Y-24897954D03*
%TD*%
D14*
%TO.C,SW19*%
X231928309Y-49858889D03*
D13*
X226760000Y-51740000D03*
D14*
X221591691Y-53621111D03*
D15*
X228777919Y-57284186D03*
X223361213Y-57020933D03*
%TD*%
D16*
%TO.C,D16*%
X166962914Y-66892046D03*
X168177086Y-70227954D03*
%TD*%
D14*
%TO.C,SW31*%
X105902777Y-106779021D03*
X95777223Y-102480979D03*
D13*
X100840000Y-104630000D03*
D15*
X98534686Y-110060979D03*
X94752697Y-106174263D03*
%TD*%
D13*
%TO.C,SW2*%
X63970000Y-35690000D03*
D14*
X58801691Y-33808889D03*
X69138309Y-37571111D03*
D15*
X61952081Y-41234186D03*
X57971860Y-37550731D03*
%TD*%
D12*
%TO.C,D22*%
X46417086Y-59372046D03*
X45202914Y-62707954D03*
%TD*%
D13*
%TO.C,SW1*%
X47060000Y-29910000D03*
D14*
X41891691Y-28028889D03*
X52228309Y-31791111D03*
D15*
X45042081Y-35454186D03*
X41061860Y-31770731D03*
%TD*%
D18*
%TO.C,D33*%
X159654885Y-120074885D03*
X162165115Y-122585115D03*
%TD*%
D14*
%TO.C,SW5*%
X119568309Y-55861111D03*
X109231691Y-52098889D03*
D13*
X114400000Y-53980000D03*
D15*
X112382081Y-59524186D03*
X108401860Y-55840731D03*
%TD*%
D12*
%TO.C,D23*%
X64867086Y-61162046D03*
X63652914Y-64497954D03*
%TD*%
%TO.C,D25*%
X96847086Y-77592046D03*
X95632914Y-80927954D03*
%TD*%
D13*
%TO.C,SW28*%
X214481691Y-69491111D03*
D14*
X219650000Y-67610000D03*
X209313382Y-71372222D03*
D15*
X216499610Y-75035297D03*
X211082904Y-74772044D03*
%TD*%
D14*
%TO.C,SW27*%
X204248309Y-77448889D03*
D13*
X199080000Y-79330000D03*
D14*
X193911691Y-81211111D03*
D15*
X201097919Y-84874186D03*
X195681213Y-84610933D03*
%TD*%
D12*
%TO.C,D12*%
X52567086Y-43372046D03*
X51352914Y-46707954D03*
%TD*%
D14*
%TO.C,SW21*%
X35288309Y-75751111D03*
X24951691Y-71988889D03*
D13*
X30120000Y-73870000D03*
D15*
X28102081Y-79414186D03*
X24121860Y-75730731D03*
%TD*%
D16*
%TO.C,D19*%
X217392914Y-48712046D03*
X218607086Y-52047954D03*
%TD*%
D19*
%TO.C,D34*%
X174276452Y-102096104D03*
X175663548Y-105363896D03*
%TD*%
D14*
%TO.C,SW25*%
X96921691Y-84058889D03*
X107258309Y-87821111D03*
D13*
X102090000Y-85940000D03*
D15*
X100072081Y-91484186D03*
X96091860Y-87800731D03*
%TD*%
D12*
%TO.C,D21*%
X24897086Y-65522046D03*
X23682914Y-68857954D03*
%TD*%
D16*
%TO.C,D20*%
X238902914Y-54862046D03*
X240117086Y-58197954D03*
%TD*%
D12*
%TO.C,D14*%
X86407086Y-55012046D03*
X85192914Y-58347954D03*
%TD*%
D16*
%TO.C,D27*%
X189722914Y-76292046D03*
X190937086Y-79627954D03*
%TD*%
D12*
%TO.C,D24*%
X80257086Y-70972046D03*
X79042914Y-74307954D03*
%TD*%
%TO.C,D5*%
X109167086Y-45642046D03*
X107952914Y-48977954D03*
%TD*%
D16*
%TO.C,D28*%
X205102914Y-66462046D03*
X206317086Y-69797954D03*
%TD*%
D14*
%TO.C,SW32*%
X119039087Y-122689087D03*
D13*
X115150000Y-118800000D03*
D14*
X111260913Y-114910913D03*
D15*
X110978070Y-122971930D03*
X108927460Y-117951472D03*
%TD*%
D13*
%TO.C,SW11*%
X36280000Y-57900000D03*
D14*
X31111691Y-56018889D03*
X41448309Y-59781111D03*
D15*
X34262081Y-63444186D03*
X30281860Y-59760731D03*
%TD*%
D16*
%TO.C,D6*%
X160822914Y-50962046D03*
X162037086Y-54297954D03*
%TD*%
D12*
%TO.C,D11*%
X31057086Y-49542046D03*
X29842914Y-52877954D03*
%TD*%
D13*
%TO.C,SW14*%
X91640000Y-63360000D03*
D14*
X96808309Y-65241111D03*
X86471691Y-61478889D03*
D15*
X89622081Y-68904186D03*
X85641860Y-65220731D03*
%TD*%
D13*
%TO.C,SW3*%
X82450000Y-37580000D03*
D14*
X77281691Y-35698889D03*
X87618309Y-39461111D03*
D15*
X80432081Y-43124186D03*
X76451860Y-39440731D03*
%TD*%
D16*
%TO.C,D26*%
X173142914Y-82922046D03*
X174357086Y-86257954D03*
%TD*%
D14*
%TO.C,SW12*%
X62979637Y-53595866D03*
D13*
X57811328Y-51714755D03*
D14*
X52643019Y-49833644D03*
D15*
X55793409Y-57258941D03*
X51813188Y-53575486D03*
%TD*%
D12*
%TO.C,D13*%
X71047086Y-45202046D03*
X69832914Y-48537954D03*
%TD*%
D16*
%TO.C,D8*%
X192792914Y-34492046D03*
X194007086Y-37827954D03*
%TD*%
D14*
%TO.C,SW9*%
X215471691Y-37611111D03*
D13*
X220640000Y-35730000D03*
D14*
X225808309Y-33848889D03*
D15*
X222657919Y-41274186D03*
X217241213Y-41010933D03*
%TD*%
D14*
%TO.C,SW20*%
X253448309Y-56008889D03*
D13*
X248280000Y-57890000D03*
D14*
X243111691Y-59771111D03*
D15*
X250297919Y-63434186D03*
X244881213Y-63170933D03*
%TD*%
D14*
%TO.C,SW15*%
X103101691Y-68078889D03*
X113438309Y-71841111D03*
D13*
X108270000Y-69960000D03*
D15*
X106252081Y-75504186D03*
X102271860Y-71820731D03*
%TD*%
D16*
%TO.C,D17*%
X183592914Y-60322046D03*
X184807086Y-63657954D03*
%TD*%
D20*
%TO.C,RZ1*%
X150505000Y-67135000D03*
X150505000Y-69675000D03*
X150505000Y-72215000D03*
X150505000Y-74755000D03*
X150505000Y-77295000D03*
D21*
X150505000Y-79835000D03*
X150505000Y-82375000D03*
X150505000Y-84915000D03*
X150505000Y-87455000D03*
D22*
X147365000Y-88265000D03*
D23*
X144825000Y-88265000D03*
X142285000Y-88265000D03*
X139745000Y-88265000D03*
X137205000Y-88265000D03*
D21*
X134065000Y-87455000D03*
X134065000Y-84915000D03*
X134065000Y-82375000D03*
X134065000Y-79835000D03*
X134065000Y-77295000D03*
X134065000Y-74755000D03*
X134065000Y-72215000D03*
X134065000Y-69675000D03*
X134065000Y-67135000D03*
%TD*%
D13*
%TO.C,SW34*%
X183780000Y-104630000D03*
D14*
X188842777Y-102480979D03*
X178717223Y-106779021D03*
D15*
X186085314Y-110060979D03*
X180662254Y-110081574D03*
%TD*%
D14*
%TO.C,SW22*%
X56828309Y-69591111D03*
D13*
X51660000Y-67710000D03*
D14*
X46491691Y-65828889D03*
D15*
X49642081Y-73254186D03*
X45661860Y-69570731D03*
%TD*%
D13*
%TO.C,SW8*%
X202170000Y-37540000D03*
D14*
X197001691Y-39421111D03*
X207338309Y-35658889D03*
D15*
X204187919Y-43084186D03*
X198771213Y-42820933D03*
%TD*%
D14*
%TO.C,SW4*%
X92613019Y-45493644D03*
X102949637Y-49255866D03*
D13*
X97781328Y-47374755D03*
D15*
X95763409Y-52918941D03*
X91783188Y-49235486D03*
%TD*%
D16*
%TO.C,D9*%
X211252914Y-32682046D03*
X212467086Y-36017954D03*
%TD*%
D12*
%TO.C,D4*%
X92547086Y-39022046D03*
X91332914Y-42357954D03*
%TD*%
D13*
%TO.C,SW30*%
X254440000Y-73850000D03*
D14*
X249271691Y-75731111D03*
X259608309Y-71968889D03*
D15*
X256457919Y-79394186D03*
X251041213Y-79130933D03*
%TD*%
D16*
%TO.C,D7*%
X177412914Y-44322046D03*
X178627086Y-47657954D03*
%TD*%
D13*
%TO.C,SW13*%
X76281328Y-53564755D03*
D14*
X81449637Y-55445866D03*
X71113019Y-51683644D03*
D15*
X74263409Y-59108941D03*
X70283188Y-55425486D03*
%TD*%
D13*
%TO.C,SW24*%
X85480000Y-79320000D03*
D14*
X90648309Y-81201111D03*
X80311691Y-77438889D03*
D15*
X83462081Y-84864186D03*
X79481860Y-81180731D03*
%TD*%
D16*
%TO.C,D29*%
X223612914Y-64672046D03*
X224827086Y-68007954D03*
%TD*%
%TO.C,D18*%
X198972914Y-50512046D03*
X200187086Y-53847954D03*
%TD*%
D14*
%TO.C,SW10*%
X232381691Y-31801111D03*
D13*
X237550000Y-29920000D03*
D14*
X242718309Y-28038889D03*
D15*
X239567919Y-35464186D03*
X234151213Y-35200933D03*
%TD*%
D24*
%TO.C,D31*%
X96063548Y-96016104D03*
X94676452Y-99283896D03*
%TD*%
D16*
%TO.C,D10*%
X228192914Y-26882046D03*
X229407086Y-30217954D03*
%TD*%
D14*
%TO.C,SW17*%
X198128309Y-61478889D03*
D13*
X192960000Y-63360000D03*
D14*
X187791691Y-65241111D03*
D15*
X194977919Y-68904186D03*
X189561213Y-68640933D03*
%TD*%
D14*
%TO.C,SW23*%
X75278309Y-71401111D03*
D13*
X70110000Y-69520000D03*
D14*
X64941691Y-67638889D03*
D15*
X68092081Y-75064186D03*
X64111860Y-71380731D03*
%TD*%
D14*
%TO.C,SW26*%
X177341691Y-87831111D03*
D13*
X182510000Y-85950000D03*
D14*
X187678309Y-84068889D03*
D15*
X184527919Y-91494186D03*
X179111213Y-91230933D03*
%TD*%
D12*
%TO.C,D15*%
X103047086Y-61622046D03*
X101832914Y-64957954D03*
%TD*%
D14*
%TO.C,SW29*%
X238138309Y-65808889D03*
X227801691Y-69571111D03*
D13*
X232970000Y-67690000D03*
D15*
X234987919Y-73234186D03*
X229571213Y-72970933D03*
%TD*%
D13*
%TO.C,SW6*%
X170190000Y-53980000D03*
D14*
X165021691Y-55861111D03*
X175358309Y-52098889D03*
D15*
X172207919Y-59524186D03*
X166791213Y-59260933D03*
%TD*%
M02*
