M48
METRIC,TZ
T1C1.700
T2C3.400
%
G90
G05
T1
X24952Y-71989
X31112Y-56019
X35288Y-75751
X41448Y-59781
X41892Y-28029
X46492Y-65829
X52228Y-31791
X52643Y-49834
X56828Y-69591
X58802Y-33809
X62980Y-53596
X64942Y-67639
X69138Y-37571
X71113Y-51684
X75278Y-71401
X77282Y-35699
X80312Y-77439
X81450Y-55446
X86472Y-61479
X87618Y-39461
X90648Y-81201
X92613Y-45494
X95777Y-102481
X96808Y-65241
X96922Y-84059
X102950Y-49256
X103102Y-68079
X105903Y-106779
X107258Y-87821
X109232Y-52099
X111261Y-114911
X113438Y-71841
X119039Y-122689
X119568Y-55861
X165022Y-55861
X165551Y-122729
X171172Y-71811
X173329Y-114951
X175358Y-52099
X177342Y-87831
X178717Y-106779
X181508Y-68049
X181622Y-49231
X187678Y-84069
X187792Y-65241
X188843Y-102481
X191958Y-45469
X193912Y-81211
X197002Y-39421
X198128Y-61479
X203172Y-55421
X204248Y-77449
X207338Y-35659
X209313Y-71372
X213508Y-51659
X215472Y-37611
X219650Y-67610
X221592Y-53621
X225808Y-33849
X227802Y-69571
X231928Y-49859
X232382Y-31801
X238138Y-65809
X242718Y-28039
X243112Y-59771
X249272Y-75731
X253448Y-56009
X259608Y-71969
T2
X30120Y-73870
X36280Y-57900
X47060Y-29910
X51660Y-67710
X57811Y-51715
X63970Y-35690
X70110Y-69520
X76281Y-53565
X82450Y-37580
X85480Y-79320
X91640Y-63360
X97781Y-47375
X100840Y-104630
X102090Y-85940
X108270Y-69960
X114400Y-53980
X115150Y-118800
X169440Y-118840
X170190Y-53980
X176340Y-69930
X182510Y-85950
X183780Y-104630
X186790Y-47350
X192960Y-63360
X199080Y-79330
X202170Y-37540
X208340Y-53540
X214482Y-69491
X220640Y-35730
X226760Y-51740
X232970Y-67690
X237550Y-29920
X248280Y-57890
X254440Y-73850
T0
M30
