M48
METRIC,TZ
T1C0.400
T2C0.800
T3C1.200
%
G90
G05
T1
X37900Y-68980
X38650Y-52720
X52260Y-35780
X74540Y-43300
X84280Y-34260
X108090Y-96910
X112100Y-50080
X126090Y-73370
X126460Y-65040
X140898Y-87580
X141356Y-90008
X151897Y-68405
T2
X134665Y-67135
X134665Y-69675
X134665Y-72215
X134665Y-74755
X134665Y-77295
X134665Y-79835
X134665Y-82375
X134665Y-84915
X134665Y-87455
X137205Y-87665
X139745Y-87665
X142285Y-87665
X144825Y-87665
X147365Y-87665
X149905Y-67135
X149905Y-69675
X149905Y-72215
X149905Y-74755
X149905Y-77295
X149905Y-79835
X149905Y-82375
X149905Y-84915
X149905Y-87455
T3
X24122Y-75731
X28102Y-79414
X30282Y-59761
X34262Y-63444
X41062Y-31771
X45042Y-35454
X45662Y-69571
X49642Y-73254
X51813Y-53575
X55793Y-57259
X57972Y-37551
X61952Y-41234
X64112Y-71381
X68092Y-75064
X70283Y-55425
X74263Y-59109
X76452Y-39441
X79482Y-81181
X80432Y-43124
X83462Y-84864
X85642Y-65221
X89622Y-68904
X91783Y-49235
X94753Y-106174
X95763Y-52919
X96092Y-87801
X98535Y-110061
X100072Y-91484
X102272Y-71821
X106252Y-75504
X108402Y-55841
X108927Y-117951
X110978Y-122972
X112382Y-59524
X166791Y-59261
X168591Y-125063
X172208Y-59524
X172941Y-75211
X173612Y-123012
X178358Y-75474
X179111Y-91231
X180662Y-110082
X183391Y-52631
X184528Y-91494
X186085Y-110061
X188808Y-52894
X189561Y-68641
X194978Y-68904
X195681Y-84611
X198771Y-42821
X201098Y-84874
X204188Y-43084
X204941Y-58821
X210358Y-59084
X211083Y-74772
X216500Y-75035
X217241Y-41011
X222658Y-41274
X223361Y-57021
X228778Y-57284
X229571Y-72971
X234151Y-35201
X234988Y-73234
X239568Y-35464
X244881Y-63171
X250298Y-63434
X251041Y-79131
X256458Y-79394
T0
M30
