%TF.GenerationSoftware,KiCad,Pcbnew,(6.0.11)*%
%TF.CreationDate,2023-05-11T00:11:01+09:00*%
%TF.ProjectId,gu34-bottom-plate,67753334-2d62-46f7-9474-6f6d2d706c61,rev?*%
%TF.SameCoordinates,Original*%
%TF.FileFunction,Soldermask,Bot*%
%TF.FilePolarity,Negative*%
%FSLAX46Y46*%
G04 Gerber Fmt 4.6, Leading zero omitted, Abs format (unit mm)*
G04 Created by KiCad (PCBNEW (6.0.11)) date 2023-05-11 00:11:01*
%MOMM*%
%LPD*%
G01*
G04 APERTURE LIST*
G04 Aperture macros list*
%AMHorizOval*
0 Thick line with rounded ends*
0 $1 width*
0 $2 $3 position (X,Y) of the first rounded end (center of the circle)*
0 $4 $5 position (X,Y) of the second rounded end (center of the circle)*
0 Add line between two ends*
20,1,$1,$2,$3,$4,$5,0*
0 Add two circle primitives to create the rounded ends*
1,1,$1,$2,$3*
1,1,$1,$4,$5*%
G04 Aperture macros list end*
%TA.AperFunction,Profile*%
%ADD10C,0.100000*%
%TD*%
%ADD11C,0.100000*%
%ADD12C,1.700000*%
%ADD13C,3.400000*%
%ADD14HorizOval,2.400000X-0.564333X1.550493X0.564333X-1.550493X0*%
%ADD15C,2.400000*%
%ADD16HorizOval,2.400000X-1.166726X1.166726X1.166726X-1.166726X0*%
%ADD17HorizOval,2.400000X0.644706X1.518833X-0.644706X-1.518833X0*%
%ADD18HorizOval,2.400000X0.564333X1.550493X-0.564333X-1.550493X0*%
%ADD19HorizOval,2.400000X1.166726X1.166726X-1.166726X-1.166726X0*%
%ADD20HorizOval,2.400000X-0.644706X1.518833X0.644706X-1.518833X0*%
G04 APERTURE END LIST*
D10*
X20014925Y-80820622D02*
X34219476Y-85990656D01*
X182184357Y-120227313D02*
G75*
G03*
X182184351Y-117398880I-1414257J1414213D01*
G01*
X247819286Y-84795286D02*
G75*
G03*
X250382644Y-85990656I1879314J683886D01*
G01*
X40391368Y-18989196D02*
X18819580Y-78257197D01*
X244210828Y-18989168D02*
G75*
G03*
X241647326Y-17793851I-1879428J-684132D01*
G01*
X195047559Y-110697548D02*
X189255547Y-113156111D01*
X55751241Y-79823845D02*
G75*
G03*
X58314640Y-78628572I684059J1879345D01*
G01*
X168042215Y-131541016D02*
G75*
G03*
X170870642Y-131541016I1414214J1414215D01*
G01*
X127212938Y-49078255D02*
G75*
G03*
X125911108Y-46961420I-1985838J237455D01*
G01*
X34219463Y-85990692D02*
G75*
G03*
X36782901Y-84795311I684037J1879392D01*
G01*
X95346573Y-113156111D02*
X103289125Y-116527525D01*
X74545067Y-85980280D02*
X94751830Y-93334940D01*
X116559905Y-131541016D02*
X127873613Y-120227307D01*
X93883621Y-35304368D02*
X125911108Y-46961420D01*
X78322819Y-25428843D02*
X93357901Y-30901165D01*
D11*
X157389197Y-49078253D02*
X157566139Y-50574220D01*
X157726147Y-51976720D01*
X157866730Y-53288770D01*
X157985398Y-54513382D01*
X158079660Y-55653574D01*
X158147028Y-56712359D01*
X158185010Y-57692752D01*
X158191118Y-58597770D01*
X158162860Y-59430426D01*
X158097747Y-60193736D01*
X157993289Y-60890715D01*
X157846995Y-61524378D01*
X157656376Y-62097740D01*
X157418942Y-62613816D01*
X157132202Y-63075621D01*
X156793667Y-63486171D01*
X156400847Y-63848479D01*
X155951251Y-64165562D01*
X155442389Y-64440434D01*
X154871772Y-64676110D01*
X154236909Y-64875606D01*
X153535311Y-65041936D01*
X152764487Y-65178116D01*
X151921947Y-65287160D01*
X151005202Y-65372084D01*
X150011760Y-65435903D01*
X148939133Y-65481631D01*
X147784830Y-65512284D01*
X146546362Y-65530877D01*
X145221237Y-65540424D01*
X143806966Y-65543942D01*
X142301060Y-65544445D01*
D10*
X118117153Y-105405006D02*
G75*
G03*
X118381403Y-107906670I1678447J-1087494D01*
G01*
X190048874Y-33464590D02*
X190718499Y-35304368D01*
D11*
X127212923Y-49078253D02*
X127035980Y-50574220D01*
X126875972Y-51976720D01*
X126735389Y-53288770D01*
X126616721Y-54513382D01*
X126522459Y-55653574D01*
X126455091Y-56712359D01*
X126417109Y-57692752D01*
X126411001Y-58597770D01*
X126439259Y-59430426D01*
X126504372Y-60193736D01*
X126608830Y-60890715D01*
X126755124Y-61524378D01*
X126945743Y-62097740D01*
X127183177Y-62613816D01*
X127469917Y-63075621D01*
X127808452Y-63486171D01*
X128201272Y-63848479D01*
X128650868Y-64165562D01*
X129159730Y-64440434D01*
X129730347Y-64676110D01*
X130365210Y-64875606D01*
X131066808Y-65041936D01*
X131837632Y-65178116D01*
X132680172Y-65287160D01*
X133596917Y-65372084D01*
X134590359Y-65435903D01*
X135662986Y-65481631D01*
X136817289Y-65512284D01*
X138055757Y-65530877D01*
X139380882Y-65540424D01*
X140795153Y-65543942D01*
X142301060Y-65544445D01*
D10*
X195047539Y-110697500D02*
G75*
G03*
X196107106Y-108075076I-781439J1841000D01*
G01*
X156728513Y-117398886D02*
G75*
G03*
X156728507Y-120227307I1414187J-1414214D01*
G01*
X210057053Y-85980280D02*
X189850290Y-93334940D01*
X225398009Y-76184772D02*
X210582773Y-81577077D01*
X168042215Y-131541016D02*
X156728507Y-120227307D01*
X190718499Y-35304368D02*
X158691012Y-46961420D01*
X226287504Y-78628563D02*
G75*
G03*
X228850905Y-79823917I1879396J684063D01*
G01*
X74019347Y-81577077D02*
X73349723Y-83416855D01*
X94553328Y-33464620D02*
G75*
G03*
X93357901Y-30901165I-1879428J684020D01*
G01*
X244002572Y-74309162D02*
X228850905Y-79823917D01*
X18819555Y-78257188D02*
G75*
G03*
X20014925Y-80820622I1879445J-684012D01*
G01*
X42954794Y-17793851D02*
X74760000Y-29370000D01*
X73349724Y-83416855D02*
G75*
G03*
X74545067Y-85980280I1879376J-684045D01*
G01*
X88494956Y-108075051D02*
G75*
G03*
X89554561Y-110697548I1841044J-781449D01*
G01*
X209842120Y-29370000D02*
X208842727Y-26624187D01*
X166220677Y-107906630D02*
G75*
G03*
X166485012Y-105404977I-1414277J1414230D01*
G01*
D11*
X166485012Y-105404977D02*
X165843422Y-104418288D01*
X165235255Y-103493247D01*
X164656430Y-102627865D01*
X164102870Y-101820152D01*
X163570495Y-101068122D01*
X163055227Y-100369784D01*
X162552988Y-99723150D01*
X162059698Y-99126231D01*
X161571279Y-98577040D01*
X161083652Y-98073587D01*
X160592739Y-97613884D01*
X160094461Y-97195942D01*
X159584739Y-96817772D01*
X159059494Y-96477386D01*
X158514648Y-96172795D01*
X157946123Y-95902011D01*
X157349839Y-95663045D01*
X156721718Y-95453908D01*
X156057681Y-95272612D01*
X155353649Y-95117168D01*
X154605545Y-94985587D01*
X153809288Y-94875882D01*
X152960801Y-94786062D01*
X152056005Y-94714140D01*
X151090820Y-94658127D01*
X150061169Y-94616035D01*
X148962973Y-94585874D01*
X147792153Y-94565656D01*
X146544630Y-94553393D01*
X145216326Y-94547096D01*
X143803162Y-94544776D01*
X142301060Y-94544445D01*
D10*
X158691035Y-46961484D02*
G75*
G03*
X157389197Y-49078253I684065J-1879416D01*
G01*
X127873619Y-120227313D02*
G75*
G03*
X127873613Y-117398880I-1414219J1414213D01*
G01*
X59204111Y-76184772D02*
X74019347Y-81577077D01*
X210582773Y-81577077D02*
X211252397Y-83416855D01*
X113731478Y-131541016D02*
G75*
G03*
X116559905Y-131541016I1414214J1414215D01*
G01*
X94553246Y-33464590D02*
X93883621Y-35304368D01*
X40599548Y-74309162D02*
X55751215Y-79823917D01*
X78322834Y-25428801D02*
G75*
G03*
X75759393Y-26624187I-684034J-1879399D01*
G01*
X189255547Y-113156111D02*
X181312995Y-116527525D01*
X102417769Y-120227307D02*
X113731478Y-131541016D01*
X210057037Y-85980237D02*
G75*
G03*
X211252397Y-83416855I-683937J1879337D01*
G01*
X156728507Y-117398880D02*
X166220717Y-107906670D01*
X244210752Y-18989196D02*
X265782540Y-78257197D01*
X103289125Y-116527525D02*
X102417769Y-117398880D01*
X226287480Y-78628572D02*
X225398009Y-76184772D01*
X206279301Y-25428843D02*
X191244219Y-30901165D01*
X127873613Y-117398880D02*
X118381403Y-107906670D01*
X264587170Y-80820552D02*
G75*
G03*
X265782540Y-78257197I-683970J1879352D01*
G01*
D11*
X118117108Y-105404977D02*
X118758697Y-104418288D01*
X119366864Y-103493247D01*
X119945689Y-102627865D01*
X120499249Y-101820152D01*
X121031624Y-101068122D01*
X121546892Y-100369784D01*
X122049131Y-99723150D01*
X122542421Y-99126231D01*
X123030840Y-98577040D01*
X123518467Y-98073587D01*
X124009380Y-97613884D01*
X124507658Y-97195942D01*
X125017380Y-96817772D01*
X125542625Y-96477386D01*
X126087471Y-96172795D01*
X126655996Y-95902011D01*
X127252280Y-95663045D01*
X127880401Y-95453908D01*
X128544438Y-95272612D01*
X129248470Y-95117168D01*
X129996574Y-94985587D01*
X130792831Y-94875882D01*
X131641318Y-94786062D01*
X132546115Y-94714140D01*
X133511299Y-94658127D01*
X134540950Y-94616035D01*
X135639146Y-94585874D01*
X136809966Y-94565656D01*
X138057489Y-94553393D01*
X139385793Y-94547096D01*
X140798957Y-94544776D01*
X142301060Y-94544445D01*
D10*
X264587195Y-80820622D02*
X250382644Y-85990656D01*
X42954792Y-17793857D02*
G75*
G03*
X40391368Y-18989196I-684042J-1879383D01*
G01*
X191244209Y-30901138D02*
G75*
G03*
X190048874Y-33464590I683991J-1879362D01*
G01*
X189850290Y-93334940D02*
X196107106Y-108075076D01*
X36782901Y-84795311D02*
X40599548Y-74309162D01*
X74760000Y-29370000D02*
X75759393Y-26624187D01*
X247819219Y-84795311D02*
X244002572Y-74309162D01*
X208842782Y-26624167D02*
G75*
G03*
X206279301Y-25428843I-1879382J-684033D01*
G01*
X94751830Y-93334940D02*
X88495014Y-108075076D01*
X181312995Y-116527525D02*
X182184351Y-117398880D01*
X241647326Y-17793851D02*
X209842120Y-29370000D01*
X102417775Y-117398886D02*
G75*
G03*
X102417769Y-120227307I1414225J-1414214D01*
G01*
X58314640Y-78628572D02*
X59204111Y-76184772D01*
X182184351Y-120227307D02*
X170870642Y-131541016D01*
X89554561Y-110697548D02*
X95346573Y-113156111D01*
D12*
%TO.C,SW18*%
X213508309Y-51658889D03*
D13*
X208340000Y-53540000D03*
D14*
X199577299Y-52153398D03*
D12*
X203171691Y-55421111D03*
D15*
X210357919Y-59084186D03*
X204941213Y-58820933D03*
%TD*%
%TO.C,SW33*%
X173611930Y-123011930D03*
D13*
X169440000Y-118840000D03*
D12*
X173329087Y-114950913D03*
D16*
X160912292Y-121286589D03*
D12*
X165550913Y-122729087D03*
D15*
X168591472Y-125062540D03*
%TD*%
D12*
%TO.C,SW7*%
X191958309Y-45468889D03*
D15*
X188807919Y-52894186D03*
X183391213Y-52630933D03*
D13*
X186790000Y-47350000D03*
D14*
X178027299Y-45963398D03*
D12*
X181621691Y-49231111D03*
%TD*%
%TO.C,SW16*%
X171171691Y-71811111D03*
X181508309Y-68048889D03*
D13*
X176340000Y-69930000D03*
D15*
X172941213Y-75210933D03*
X178357919Y-75474186D03*
D14*
X167577299Y-68543398D03*
%TD*%
D13*
%TO.C,SW19*%
X226760000Y-51740000D03*
D12*
X231928309Y-49858889D03*
D15*
X223361213Y-57020933D03*
D14*
X217997299Y-50353398D03*
D15*
X228777919Y-57284186D03*
D12*
X221591691Y-53621111D03*
%TD*%
D17*
%TO.C,SW31*%
X95377026Y-97639756D03*
D12*
X105902777Y-106779021D03*
D15*
X98534686Y-110060979D03*
D12*
X95777223Y-102480979D03*
D13*
X100840000Y-104630000D03*
D15*
X94752697Y-106174263D03*
%TD*%
%TO.C,SW2*%
X61952081Y-41234186D03*
X57971860Y-37550731D03*
D13*
X63970000Y-35690000D03*
D18*
X58148672Y-28995245D03*
D12*
X58801691Y-33808889D03*
X69138309Y-37571111D03*
%TD*%
%TO.C,SW1*%
X52228309Y-31791111D03*
D15*
X41061860Y-31770731D03*
D18*
X41238672Y-23215245D03*
D13*
X47060000Y-29910000D03*
D15*
X45042081Y-35454186D03*
D12*
X41891691Y-28028889D03*
%TD*%
D13*
%TO.C,SW5*%
X114400000Y-53980000D03*
D15*
X112382081Y-59524186D03*
D18*
X108578672Y-47285245D03*
D15*
X108401860Y-55840731D03*
D12*
X119568309Y-55861111D03*
X109231691Y-52098889D03*
%TD*%
D15*
%TO.C,SW28*%
X211082904Y-74772044D03*
X216499610Y-75035297D03*
D12*
X209313382Y-71372222D03*
D13*
X214481691Y-69491111D03*
D14*
X205718990Y-68104509D03*
D12*
X219650000Y-67610000D03*
%TD*%
D13*
%TO.C,SW27*%
X199080000Y-79330000D03*
D15*
X201097919Y-84874186D03*
D14*
X190317299Y-77943398D03*
D15*
X195681213Y-84610933D03*
D12*
X204248309Y-77448889D03*
X193911691Y-81211111D03*
%TD*%
%TO.C,SW21*%
X35288309Y-75751111D03*
D13*
X30120000Y-73870000D03*
D18*
X24298672Y-67175245D03*
D15*
X28102081Y-79414186D03*
X24121860Y-75730731D03*
D12*
X24951691Y-71988889D03*
%TD*%
D18*
%TO.C,SW25*%
X96268672Y-79245245D03*
D15*
X100072081Y-91484186D03*
D12*
X96921691Y-84058889D03*
X107258309Y-87821111D03*
D15*
X96091860Y-87800731D03*
D13*
X102090000Y-85940000D03*
%TD*%
%TO.C,SW32*%
X115150000Y-118800000D03*
D15*
X110978070Y-122971930D03*
D19*
X112703411Y-110272292D03*
D12*
X119039087Y-122689087D03*
D15*
X108927460Y-117951472D03*
D12*
X111260913Y-114910913D03*
%TD*%
%TO.C,SW11*%
X31111691Y-56018889D03*
D13*
X36280000Y-57900000D03*
D12*
X41448309Y-59781111D03*
D18*
X30458672Y-51205245D03*
D15*
X34262081Y-63444186D03*
X30281860Y-59760731D03*
%TD*%
D12*
%TO.C,SW14*%
X96808309Y-65241111D03*
D18*
X85818672Y-56665245D03*
D12*
X86471691Y-61478889D03*
D15*
X89622081Y-68904186D03*
X85641860Y-65220731D03*
D13*
X91640000Y-63360000D03*
%TD*%
D12*
%TO.C,SW3*%
X87618309Y-39461111D03*
D18*
X76628672Y-30885245D03*
D13*
X82450000Y-37580000D03*
D15*
X80432081Y-43124186D03*
D12*
X77281691Y-35698889D03*
D15*
X76451860Y-39440731D03*
%TD*%
%TO.C,SW12*%
X51813188Y-53575486D03*
D12*
X52643019Y-49833644D03*
D15*
X55793409Y-57258941D03*
D13*
X57811328Y-51714755D03*
D18*
X51990000Y-45020000D03*
D12*
X62979637Y-53595866D03*
%TD*%
%TO.C,SW9*%
X215471691Y-37611111D03*
D13*
X220640000Y-35730000D03*
D15*
X217241213Y-41010933D03*
D14*
X211877299Y-34343398D03*
D12*
X225808309Y-33848889D03*
D15*
X222657919Y-41274186D03*
%TD*%
D12*
%TO.C,SW20*%
X253448309Y-56008889D03*
D13*
X248280000Y-57890000D03*
D14*
X239517299Y-56503398D03*
D15*
X244881213Y-63170933D03*
D12*
X243111691Y-59771111D03*
D15*
X250297919Y-63434186D03*
%TD*%
D18*
%TO.C,SW15*%
X102448672Y-63265245D03*
D13*
X108270000Y-69960000D03*
D15*
X106252081Y-75504186D03*
D12*
X103101691Y-68078889D03*
X113438309Y-71841111D03*
D15*
X102271860Y-71820731D03*
%TD*%
%TO.C,SW34*%
X180662254Y-110081574D03*
D20*
X174956738Y-103703903D03*
D12*
X178717223Y-106779021D03*
X188842777Y-102480979D03*
D15*
X186085314Y-110060979D03*
D13*
X183780000Y-104630000D03*
%TD*%
D12*
%TO.C,SW22*%
X46491691Y-65828889D03*
D15*
X45661860Y-69570731D03*
X49642081Y-73254186D03*
D12*
X56828309Y-69591111D03*
D13*
X51660000Y-67710000D03*
D18*
X45838672Y-61015245D03*
%TD*%
D13*
%TO.C,SW8*%
X202170000Y-37540000D03*
D15*
X198771213Y-42820933D03*
D14*
X193407299Y-36153398D03*
D12*
X197001691Y-39421111D03*
D15*
X204187919Y-43084186D03*
D12*
X207338309Y-35658889D03*
%TD*%
%TO.C,SW4*%
X92613019Y-45493644D03*
X102949637Y-49255866D03*
D15*
X91783188Y-49235486D03*
X95763409Y-52918941D03*
D13*
X97781328Y-47374755D03*
D18*
X91960000Y-40680000D03*
%TD*%
D12*
%TO.C,SW30*%
X249271691Y-75731111D03*
D15*
X256457919Y-79394186D03*
X251041213Y-79130933D03*
D14*
X245677299Y-72463398D03*
D12*
X259608309Y-71968889D03*
D13*
X254440000Y-73850000D03*
%TD*%
%TO.C,SW13*%
X76281328Y-53564755D03*
D12*
X71113019Y-51683644D03*
D15*
X70283188Y-55425486D03*
D12*
X81449637Y-55445866D03*
D18*
X70460000Y-46870000D03*
D15*
X74263409Y-59108941D03*
%TD*%
D12*
%TO.C,SW24*%
X90648309Y-81201111D03*
D13*
X85480000Y-79320000D03*
D12*
X80311691Y-77438889D03*
D18*
X79658672Y-72625245D03*
D15*
X83462081Y-84864186D03*
X79481860Y-81180731D03*
%TD*%
D14*
%TO.C,SW10*%
X228787299Y-28533398D03*
D15*
X234151213Y-35200933D03*
D13*
X237550000Y-29920000D03*
D12*
X242718309Y-28038889D03*
D15*
X239567919Y-35464186D03*
D12*
X232381691Y-31801111D03*
%TD*%
D13*
%TO.C,SW17*%
X192960000Y-63360000D03*
D12*
X187791691Y-65241111D03*
X198128309Y-61478889D03*
D14*
X184197299Y-61973398D03*
D15*
X189561213Y-68640933D03*
X194977919Y-68904186D03*
%TD*%
%TO.C,SW23*%
X68092081Y-75064186D03*
D13*
X70110000Y-69520000D03*
D18*
X64288672Y-62825245D03*
D12*
X75278309Y-71401111D03*
X64941691Y-67638889D03*
D15*
X64111860Y-71380731D03*
%TD*%
D12*
%TO.C,SW26*%
X187678309Y-84068889D03*
D15*
X184527919Y-91494186D03*
D14*
X173747299Y-84563398D03*
D15*
X179111213Y-91230933D03*
D12*
X177341691Y-87831111D03*
D13*
X182510000Y-85950000D03*
%TD*%
D15*
%TO.C,SW29*%
X229571213Y-72970933D03*
D14*
X224207299Y-66303398D03*
D13*
X232970000Y-67690000D03*
D12*
X227801691Y-69571111D03*
X238138309Y-65808889D03*
D15*
X234987919Y-73234186D03*
%TD*%
D12*
%TO.C,SW6*%
X175358309Y-52098889D03*
D13*
X170190000Y-53980000D03*
D15*
X166791213Y-59260933D03*
X172207919Y-59524186D03*
D12*
X165021691Y-55861111D03*
D14*
X161427299Y-52593398D03*
%TD*%
M02*
