M48
; DRILL file {KiCad (6.0.11)} date 2023年05月11日 00時11分38秒
; FORMAT={-:-/ absolute / metric / decimal}
; #@! TF.CreationDate,2023-05-11T00:11:38+09:00
; #@! TF.GenerationSoftware,Kicad,Pcbnew,(6.0.11)
; #@! TF.FileFunction,Plated,1,2,PTH
FMAT,2
METRIC
; #@! TA.AperFunction,Plated,PTH,ViaDrill
T1C0.400
; #@! TA.AperFunction,Plated,PTH,ComponentDrill
T2C0.800
; #@! TA.AperFunction,Plated,PTH,ComponentDrill
T3C1.200
%
G90
G05
T1
X37.9Y-68.98
X38.65Y-52.72
X52.26Y-35.78
X74.54Y-43.3
X84.28Y-34.26
X108.09Y-96.91
X112.1Y-50.08
X126.09Y-73.37
X126.46Y-65.04
X140.898Y-87.58
X141.356Y-90.008
X151.897Y-68.405
T2
X134.665Y-67.135
X134.665Y-69.675
X134.665Y-72.215
X134.665Y-74.755
X134.665Y-77.295
X134.665Y-79.835
X134.665Y-82.375
X134.665Y-84.915
X134.665Y-87.455
X137.205Y-87.665
X139.745Y-87.665
X142.285Y-87.665
X144.825Y-87.665
X147.365Y-87.665
X149.905Y-67.135
X149.905Y-69.675
X149.905Y-72.215
X149.905Y-74.755
X149.905Y-77.295
X149.905Y-79.835
X149.905Y-82.375
X149.905Y-84.915
X149.905Y-87.455
T3
X24.122Y-75.731
X28.102Y-79.414
X30.282Y-59.761
X34.262Y-63.444
X41.062Y-31.771
X45.042Y-35.454
X45.662Y-69.571
X49.642Y-73.254
X51.813Y-53.575
X55.793Y-57.259
X57.972Y-37.551
X61.952Y-41.234
X64.112Y-71.381
X68.092Y-75.064
X70.283Y-55.425
X74.263Y-59.109
X76.452Y-39.441
X79.482Y-81.181
X80.432Y-43.124
X83.462Y-84.864
X85.642Y-65.221
X89.622Y-68.904
X91.783Y-49.235
X94.753Y-106.174
X95.763Y-52.919
X96.092Y-87.801
X98.535Y-110.061
X100.072Y-91.484
X102.272Y-71.821
X106.252Y-75.504
X108.402Y-55.841
X108.927Y-117.951
X110.978Y-122.972
X112.382Y-59.524
X166.791Y-59.261
X168.591Y-125.063
X172.208Y-59.524
X172.941Y-75.211
X173.612Y-123.012
X178.358Y-75.474
X179.111Y-91.231
X180.662Y-110.082
X183.391Y-52.631
X184.528Y-91.494
X186.085Y-110.061
X188.808Y-52.894
X189.561Y-68.641
X194.978Y-68.904
X195.681Y-84.611
X198.771Y-42.821
X201.098Y-84.874
X204.188Y-43.084
X204.941Y-58.821
X210.358Y-59.084
X211.083Y-74.772
X216.5Y-75.035
X217.241Y-41.011
X222.658Y-41.274
X223.361Y-57.021
X228.778Y-57.284
X229.571Y-72.971
X234.151Y-35.201
X234.988Y-73.234
X239.568Y-35.464
X244.881Y-63.171
X250.298Y-63.434
X251.041Y-79.131
X256.458Y-79.394
T0
M30
