M48
; DRILL file {KiCad (6.0.11)} date 2023年05月11日 00時11分38秒
; FORMAT={-:-/ absolute / metric / decimal}
; #@! TF.CreationDate,2023-05-11T00:11:38+09:00
; #@! TF.GenerationSoftware,Kicad,Pcbnew,(6.0.11)
; #@! TF.FileFunction,NonPlated,1,2,NPTH
FMAT,2
METRIC
; #@! TA.AperFunction,NonPlated,NPTH,ComponentDrill
T1C1.700
; #@! TA.AperFunction,NonPlated,NPTH,ComponentDrill
T2C3.400
%
G90
G05
T1
X24.952Y-71.989
X31.112Y-56.019
X35.288Y-75.751
X41.448Y-59.781
X41.892Y-28.029
X46.492Y-65.829
X52.228Y-31.791
X52.643Y-49.834
X56.828Y-69.591
X58.802Y-33.809
X62.98Y-53.596
X64.942Y-67.639
X69.138Y-37.571
X71.113Y-51.684
X75.278Y-71.401
X77.282Y-35.699
X80.312Y-77.439
X81.45Y-55.446
X86.472Y-61.479
X87.618Y-39.461
X90.648Y-81.201
X92.613Y-45.494
X95.777Y-102.481
X96.808Y-65.241
X96.922Y-84.059
X102.95Y-49.256
X103.102Y-68.079
X105.903Y-106.779
X107.258Y-87.821
X109.232Y-52.099
X111.261Y-114.911
X113.438Y-71.841
X119.039Y-122.689
X119.568Y-55.861
X165.022Y-55.861
X165.551Y-122.729
X171.172Y-71.811
X173.329Y-114.951
X175.358Y-52.099
X177.342Y-87.831
X178.717Y-106.779
X181.508Y-68.049
X181.622Y-49.231
X187.678Y-84.069
X187.792Y-65.241
X188.843Y-102.481
X191.958Y-45.469
X193.912Y-81.211
X197.002Y-39.421
X198.128Y-61.479
X203.172Y-55.421
X204.248Y-77.449
X207.338Y-35.659
X209.313Y-71.372
X213.508Y-51.659
X215.472Y-37.611
X219.65Y-67.61
X221.592Y-53.621
X225.808Y-33.849
X227.802Y-69.571
X231.928Y-49.859
X232.382Y-31.801
X238.138Y-65.809
X242.718Y-28.039
X243.112Y-59.771
X249.272Y-75.731
X253.448Y-56.009
X259.608Y-71.969
T2
X30.12Y-73.87
X36.28Y-57.9
X47.06Y-29.91
X51.66Y-67.71
X57.811Y-51.715
X63.97Y-35.69
X70.11Y-69.52
X76.281Y-53.565
X82.45Y-37.58
X85.48Y-79.32
X91.64Y-63.36
X97.781Y-47.375
X100.84Y-104.63
X102.09Y-85.94
X108.27Y-69.96
X114.4Y-53.98
X115.15Y-118.8
X169.44Y-118.84
X170.19Y-53.98
X176.34Y-69.93
X182.51Y-85.95
X183.78Y-104.63
X186.79Y-47.35
X192.96Y-63.36
X199.08Y-79.33
X202.17Y-37.54
X208.34Y-53.54
X214.482Y-69.491
X220.64Y-35.73
X226.76Y-51.74
X232.97Y-67.69
X237.55Y-29.92
X248.28Y-57.89
X254.44Y-73.85
T0
M30
