M48
METRIC,TZ
T1C1.700
T2C2.400
T3C3.400
%
G90
G05
T1
X24952Y-71989
X31112Y-56019
X35288Y-75751
X41448Y-59781
X41892Y-28029
X46492Y-65829
X52228Y-31791
X52643Y-49834
X56828Y-69591
X58802Y-33809
X62980Y-53596
X64942Y-67639
X69138Y-37571
X71113Y-51684
X75278Y-71401
X77282Y-35699
X80312Y-77439
X81450Y-55446
X86472Y-61479
X87618Y-39461
X90648Y-81201
X92613Y-45494
X95777Y-102481
X96808Y-65241
X96922Y-84059
X102950Y-49256
X103102Y-68079
X105903Y-106779
X107258Y-87821
X109232Y-52099
X111261Y-114911
X113438Y-71841
X119039Y-122689
X119568Y-55861
X165022Y-55861
X165551Y-122729
X171172Y-71811
X173329Y-114951
X175358Y-52099
X177342Y-87831
X178717Y-106779
X181508Y-68049
X181622Y-49231
X187678Y-84069
X187792Y-65241
X188843Y-102481
X191958Y-45469
X193912Y-81211
X197002Y-39421
X198128Y-61479
X203172Y-55421
X204248Y-77449
X207338Y-35659
X209313Y-71372
X213508Y-51659
X215472Y-37611
X219650Y-67610
X221592Y-53621
X225808Y-33849
X227802Y-69571
X231928Y-49859
X232382Y-31801
X238138Y-65809
X242718Y-28039
X243112Y-59771
X249272Y-75731
X253448Y-56009
X259608Y-71969
T2
X24122Y-75731
X28102Y-79414
X30282Y-59761
X34262Y-63444
X41062Y-31771
X45042Y-35454
X45662Y-69571
X49642Y-73254
X51813Y-53575
X55793Y-57259
X57972Y-37551
X61952Y-41234
X64112Y-71381
X68092Y-75064
X70283Y-55425
X74263Y-59109
X76452Y-39441
X79482Y-81181
X80432Y-43124
X83462Y-84864
X85642Y-65221
X89622Y-68904
X91783Y-49235
X94753Y-106174
X95763Y-52919
X96092Y-87801
X98535Y-110061
X100072Y-91484
X102272Y-71821
X106252Y-75504
X108402Y-55841
X108927Y-117951
X110978Y-122972
X112382Y-59524
X166791Y-59261
X168591Y-125063
X172208Y-59524
X172941Y-75211
X173612Y-123012
X178358Y-75474
X179111Y-91231
X180662Y-110082
X183391Y-52631
X184528Y-91494
X186085Y-110061
X188808Y-52894
X189561Y-68641
X194978Y-68904
X195681Y-84611
X198771Y-42821
X201098Y-84874
X204188Y-43084
X204941Y-58821
X210358Y-59084
X211083Y-74772
X216500Y-75035
X217241Y-41011
X222658Y-41274
X223361Y-57021
X228778Y-57284
X229571Y-72971
X234151Y-35201
X234988Y-73234
X239568Y-35464
X244881Y-63171
X250298Y-63434
X251041Y-79131
X256458Y-79394
T3
X30120Y-73870
X36280Y-57900
X47060Y-29910
X51660Y-67710
X57811Y-51715
X63970Y-35690
X70110Y-69520
X76281Y-53565
X82450Y-37580
X85480Y-79320
X91640Y-63360
X97781Y-47375
X100840Y-104630
X102090Y-85940
X108270Y-69960
X114400Y-53980
X115150Y-118800
X169440Y-118840
X170190Y-53980
X176340Y-69930
X182510Y-85950
X183780Y-104630
X186790Y-47350
X192960Y-63360
X199080Y-79330
X202170Y-37540
X208340Y-53540
X214482Y-69491
X220640Y-35730
X226760Y-51740
X232970Y-67690
X237550Y-29920
X248280Y-57890
X254440Y-73850
T2
G00X23734Y-68726
M15
G01X24863Y-65625
M16
G05
G00X29894Y-52756
M15
G01X31023Y-49655
M16
G05
G00X40674Y-24766
M15
G01X41803Y-21665
M16
G05
G00X45274Y-62566
M15
G01X46403Y-59465
M16
G05
G00X51426Y-46570
M15
G01X52554Y-43470
M16
G05
G00X57584Y-30546
M15
G01X58713Y-27445
M16
G05
G00X63724Y-64376
M15
G01X64853Y-61275
M16
G05
G00X69896Y-48420
M15
G01X71024Y-45320
M16
G05
G00X76064Y-32436
M15
G01X77193Y-29335
M16
G05
G00X79094Y-74176
M15
G01X80223Y-71075
M16
G05
G00X85254Y-58216
M15
G01X86383Y-55115
M16
G05
G00X91396Y-42230
M15
G01X92524Y-39130
M16
G05
G00X94732Y-99159
M15
G01X96022Y-96121
M16
G05
G00X95704Y-80796
M15
G01X96833Y-77695
M16
G05
G00X101884Y-64816
M15
G01X103013Y-61715
M16
G05
G00X108014Y-48836
M15
G01X109143Y-45735
M16
G05
G00X111537Y-111439
M15
G01X113870Y-109106
M16
G05
G00X162079Y-122453
M15
G01X159746Y-120120
M16
G05
G00X161992Y-54144
M15
G01X160863Y-51043
M16
G05
G00X168142Y-70094
M15
G01X167013Y-66993
M16
G05
G00X174312Y-86114
M15
G01X173183Y-83013
M16
G05
G00X175601Y-105223
M15
G01X174312Y-102185
M16
G05
G00X178592Y-47514
M15
G01X177463Y-44413
M16
G05
G00X184762Y-63524
M15
G01X183633Y-60423
M16
G05
G00X190882Y-79494
M15
G01X189753Y-76393
M16
G05
G00X193972Y-37704
M15
G01X192843Y-34603
M16
G05
G00X200142Y-53704
M15
G01X199013Y-50603
M16
G05
G00X206283Y-69655
M15
G01X205155Y-66554
M16
G05
G00X212442Y-35894
M15
G01X211313Y-32793
M16
G05
G00X218562Y-51904
M15
G01X217433Y-48803
M16
G05
G00X224772Y-67854
M15
G01X223643Y-64753
M16
G05
G00X229352Y-30084
M15
G01X228223Y-26983
M16
G05
G00X240082Y-58054
M15
G01X238953Y-54953
M16
G05
G00X246242Y-74014
M15
G01X245113Y-70913
M16
G05
T0
M30
