M48
; DRILL file {KiCad (6.0.11)} date 2023年05月16日 20時57分37秒
; FORMAT={-:-/ absolute / metric / decimal}
; #@! TF.CreationDate,2023-05-16T20:57:37+09:00
; #@! TF.GenerationSoftware,Kicad,Pcbnew,(6.0.11)
; #@! TF.FileFunction,MixedPlating,1,2
FMAT,2
METRIC
; #@! TA.AperFunction,Plated,PTH,ViaDrill
T1C0.400
; #@! TA.AperFunction,Plated,PTH,ComponentDrill
T2C0.800
; #@! TA.AperFunction,Plated,PTH,ComponentDrill
T3C1.200
; #@! TA.AperFunction,NonPlated,NPTH,ComponentDrill
T4C1.700
; #@! TA.AperFunction,NonPlated,NPTH,ComponentDrill
T5C3.400
%
G90
G05
T1
X37.9Y-68.98
X38.65Y-52.72
X52.26Y-35.78
X74.54Y-43.3
X84.28Y-34.26
X108.09Y-96.91
X112.1Y-50.08
X126.09Y-73.37
X126.46Y-65.04
X140.898Y-87.58
X141.356Y-90.008
X151.897Y-68.405
T2
X134.665Y-67.135
X134.665Y-69.675
X134.665Y-72.215
X134.665Y-74.755
X134.665Y-77.295
X134.665Y-79.835
X134.665Y-82.375
X134.665Y-84.915
X134.665Y-87.455
X137.205Y-87.665
X139.745Y-87.665
X142.285Y-87.665
X144.825Y-87.665
X147.365Y-87.665
X149.905Y-67.135
X149.905Y-69.675
X149.905Y-72.215
X149.905Y-74.755
X149.905Y-77.295
X149.905Y-79.835
X149.905Y-82.375
X149.905Y-84.915
X149.905Y-87.455
T3
X24.122Y-75.731
X28.102Y-79.414
X30.282Y-59.761
X34.262Y-63.444
X41.062Y-31.771
X45.042Y-35.454
X45.662Y-69.571
X49.642Y-73.254
X51.813Y-53.575
X55.793Y-57.259
X57.972Y-37.551
X61.952Y-41.234
X64.112Y-71.381
X68.092Y-75.064
X70.283Y-55.425
X74.263Y-59.109
X76.452Y-39.441
X79.482Y-81.181
X80.432Y-43.124
X83.462Y-84.864
X85.642Y-65.221
X89.622Y-68.904
X91.783Y-49.235
X94.753Y-106.174
X95.763Y-52.919
X96.092Y-87.801
X98.535Y-110.061
X100.072Y-91.484
X102.272Y-71.821
X106.252Y-75.504
X108.402Y-55.841
X108.927Y-117.951
X110.978Y-122.972
X112.382Y-59.524
X166.791Y-59.261
X168.591Y-125.063
X172.208Y-59.524
X172.941Y-75.211
X173.612Y-123.012
X178.358Y-75.474
X179.111Y-91.231
X180.662Y-110.082
X183.391Y-52.631
X184.528Y-91.494
X186.085Y-110.061
X188.808Y-52.894
X189.561Y-68.641
X194.978Y-68.904
X195.681Y-84.611
X198.771Y-42.821
X201.098Y-84.874
X204.188Y-43.084
X204.941Y-58.821
X210.358Y-59.084
X211.083Y-74.772
X216.5Y-75.035
X217.241Y-41.011
X222.658Y-41.274
X223.361Y-57.021
X228.778Y-57.284
X229.571Y-72.971
X234.151Y-35.201
X234.988Y-73.234
X239.568Y-35.464
X244.881Y-63.171
X250.298Y-63.434
X251.041Y-79.131
X256.458Y-79.394
T4
X24.952Y-71.989
X31.112Y-56.019
X35.288Y-75.751
X41.448Y-59.781
X41.892Y-28.029
X46.492Y-65.829
X52.228Y-31.791
X52.643Y-49.834
X56.828Y-69.591
X58.802Y-33.809
X62.98Y-53.596
X64.942Y-67.639
X69.138Y-37.571
X71.113Y-51.684
X75.278Y-71.401
X77.282Y-35.699
X80.312Y-77.439
X81.45Y-55.446
X86.472Y-61.479
X87.618Y-39.461
X90.648Y-81.201
X92.613Y-45.494
X95.777Y-102.481
X96.808Y-65.241
X96.922Y-84.059
X102.95Y-49.256
X103.102Y-68.079
X105.903Y-106.779
X107.258Y-87.821
X109.232Y-52.099
X111.261Y-114.911
X113.438Y-71.841
X119.039Y-122.689
X119.568Y-55.861
X165.022Y-55.861
X165.551Y-122.729
X171.172Y-71.811
X173.329Y-114.951
X175.358Y-52.099
X177.342Y-87.831
X178.717Y-106.779
X181.508Y-68.049
X181.622Y-49.231
X187.678Y-84.069
X187.792Y-65.241
X188.843Y-102.481
X191.958Y-45.469
X193.912Y-81.211
X197.002Y-39.421
X198.128Y-61.479
X203.172Y-55.421
X204.248Y-77.449
X207.338Y-35.659
X209.313Y-71.372
X213.508Y-51.659
X215.472Y-37.611
X219.65Y-67.61
X221.592Y-53.621
X225.808Y-33.849
X227.802Y-69.571
X231.928Y-49.859
X232.382Y-31.801
X238.138Y-65.809
X242.718Y-28.039
X243.112Y-59.771
X249.272Y-75.731
X253.448Y-56.009
X259.608Y-71.969
T5
X30.12Y-73.87
X36.28Y-57.9
X47.06Y-29.91
X51.66Y-67.71
X57.811Y-51.715
X63.97Y-35.69
X70.11Y-69.52
X76.281Y-53.565
X82.45Y-37.58
X85.48Y-79.32
X91.64Y-63.36
X97.781Y-47.375
X100.84Y-104.63
X102.09Y-85.94
X108.27Y-69.96
X114.4Y-53.98
X115.15Y-118.8
X169.44Y-118.84
X170.19Y-53.98
X176.34Y-69.93
X182.51Y-85.95
X183.78Y-104.63
X186.79Y-47.35
X192.96Y-63.36
X199.08Y-79.33
X202.17Y-37.54
X208.34Y-53.54
X214.482Y-69.491
X220.64Y-35.73
X226.76Y-51.74
X232.97Y-67.69
X237.55Y-29.92
X248.28Y-57.89
X254.44Y-73.85
T0
M30
