M48
; DRILL file {KiCad (6.0.11)} date 2023年05月11日 00時11分01秒
; FORMAT={-:-/ absolute / metric / decimal}
; #@! TF.CreationDate,2023-05-11T00:11:01+09:00
; #@! TF.GenerationSoftware,Kicad,Pcbnew,(6.0.11)
; #@! TF.FileFunction,MixedPlating,1,2
FMAT,2
METRIC
; #@! TA.AperFunction,NonPlated,NPTH,ComponentDrill
T1C1.700
; #@! TA.AperFunction,NonPlated,NPTH,ComponentDrill
T2C2.400
; #@! TA.AperFunction,NonPlated,NPTH,ComponentDrill
T3C3.400
%
G90
G05
T1
X24.952Y-71.989
X31.112Y-56.019
X35.288Y-75.751
X41.448Y-59.781
X41.892Y-28.029
X46.492Y-65.829
X52.228Y-31.791
X52.643Y-49.834
X56.828Y-69.591
X58.802Y-33.809
X62.98Y-53.596
X64.942Y-67.639
X69.138Y-37.571
X71.113Y-51.684
X75.278Y-71.401
X77.282Y-35.699
X80.312Y-77.439
X81.45Y-55.446
X86.472Y-61.479
X87.618Y-39.461
X90.648Y-81.201
X92.613Y-45.494
X95.777Y-102.481
X96.808Y-65.241
X96.922Y-84.059
X102.95Y-49.256
X103.102Y-68.079
X105.903Y-106.779
X107.258Y-87.821
X109.232Y-52.099
X111.261Y-114.911
X113.438Y-71.841
X119.039Y-122.689
X119.568Y-55.861
X165.022Y-55.861
X165.551Y-122.729
X171.172Y-71.811
X173.329Y-114.951
X175.358Y-52.099
X177.342Y-87.831
X178.717Y-106.779
X181.508Y-68.049
X181.622Y-49.231
X187.678Y-84.069
X187.792Y-65.241
X188.843Y-102.481
X191.958Y-45.469
X193.912Y-81.211
X197.002Y-39.421
X198.128Y-61.479
X203.172Y-55.421
X204.248Y-77.449
X207.338Y-35.659
X209.313Y-71.372
X213.508Y-51.659
X215.472Y-37.611
X219.65Y-67.61
X221.592Y-53.621
X225.808Y-33.849
X227.802Y-69.571
X231.928Y-49.859
X232.382Y-31.801
X238.138Y-65.809
X242.718Y-28.039
X243.112Y-59.771
X249.272Y-75.731
X253.448Y-56.009
X259.608Y-71.969
T2
X24.122Y-75.731
X28.102Y-79.414
X30.282Y-59.761
X34.262Y-63.444
X41.062Y-31.771
X45.042Y-35.454
X45.662Y-69.571
X49.642Y-73.254
X51.813Y-53.575
X55.793Y-57.259
X57.972Y-37.551
X61.952Y-41.234
X64.112Y-71.381
X68.092Y-75.064
X70.283Y-55.425
X74.263Y-59.109
X76.452Y-39.441
X79.482Y-81.181
X80.432Y-43.124
X83.462Y-84.864
X85.642Y-65.221
X89.622Y-68.904
X91.783Y-49.235
X94.753Y-106.174
X95.763Y-52.919
X96.092Y-87.801
X98.535Y-110.061
X100.072Y-91.484
X102.272Y-71.821
X106.252Y-75.504
X108.402Y-55.841
X108.927Y-117.951
X110.978Y-122.972
X112.382Y-59.524
X166.791Y-59.261
X168.591Y-125.063
X172.208Y-59.524
X172.941Y-75.211
X173.612Y-123.012
X178.358Y-75.474
X179.111Y-91.231
X180.662Y-110.082
X183.391Y-52.631
X184.528Y-91.494
X186.085Y-110.061
X188.808Y-52.894
X189.561Y-68.641
X194.978Y-68.904
X195.681Y-84.611
X198.771Y-42.821
X201.098Y-84.874
X204.188Y-43.084
X204.941Y-58.821
X210.358Y-59.084
X211.083Y-74.772
X216.5Y-75.035
X217.241Y-41.011
X222.658Y-41.274
X223.361Y-57.021
X228.778Y-57.284
X229.571Y-72.971
X234.151Y-35.201
X234.988Y-73.234
X239.568Y-35.464
X244.881Y-63.171
X250.298Y-63.434
X251.041Y-79.131
X256.458Y-79.394
T3
X30.12Y-73.87
X36.28Y-57.9
X47.06Y-29.91
X51.66Y-67.71
X57.811Y-51.715
X63.97Y-35.69
X70.11Y-69.52
X76.281Y-53.565
X82.45Y-37.58
X85.48Y-79.32
X91.64Y-63.36
X97.781Y-47.375
X100.84Y-104.63
X102.09Y-85.94
X108.27Y-69.96
X114.4Y-53.98
X115.15Y-118.8
X169.44Y-118.84
X170.19Y-53.98
X176.34Y-69.93
X182.51Y-85.95
X183.78Y-104.63
X186.79Y-47.35
X192.96Y-63.36
X199.08Y-79.33
X202.17Y-37.54
X208.34Y-53.54
X214.482Y-69.491
X220.64Y-35.73
X226.76Y-51.74
X232.97Y-67.69
X237.55Y-29.92
X248.28Y-57.89
X254.44Y-73.85
T2
G00X23.734Y-68.726
M15
G01X24.863Y-65.625
M16
G05
G00X29.894Y-52.756
M15
G01X31.023Y-49.655
M16
G05
G00X40.674Y-24.766
M15
G01X41.803Y-21.665
M16
G05
G00X45.274Y-62.566
M15
G01X46.403Y-59.465
M16
G05
G00X51.426Y-46.57
M15
G01X52.554Y-43.47
M16
G05
G00X57.584Y-30.546
M15
G01X58.713Y-27.445
M16
G05
G00X63.724Y-64.376
M15
G01X64.853Y-61.275
M16
G05
G00X69.896Y-48.42
M15
G01X71.024Y-45.32
M16
G05
G00X76.064Y-32.436
M15
G01X77.193Y-29.335
M16
G05
G00X79.094Y-74.176
M15
G01X80.223Y-71.075
M16
G05
G00X85.254Y-58.216
M15
G01X86.383Y-55.115
M16
G05
G00X91.396Y-42.23
M15
G01X92.524Y-39.13
M16
G05
G00X94.732Y-99.159
M15
G01X96.022Y-96.121
M16
G05
G00X95.704Y-80.796
M15
G01X96.833Y-77.695
M16
G05
G00X101.884Y-64.816
M15
G01X103.013Y-61.715
M16
G05
G00X108.014Y-48.836
M15
G01X109.143Y-45.735
M16
G05
G00X111.537Y-111.439
M15
G01X113.87Y-109.106
M16
G05
G00X162.079Y-122.453
M15
G01X159.746Y-120.12
M16
G05
G00X161.992Y-54.144
M15
G01X160.863Y-51.043
M16
G05
G00X168.142Y-70.094
M15
G01X167.013Y-66.993
M16
G05
G00X174.312Y-86.114
M15
G01X173.183Y-83.013
M16
G05
G00X175.601Y-105.223
M15
G01X174.312Y-102.185
M16
G05
G00X178.592Y-47.514
M15
G01X177.463Y-44.413
M16
G05
G00X184.762Y-63.524
M15
G01X183.633Y-60.423
M16
G05
G00X190.882Y-79.494
M15
G01X189.753Y-76.393
M16
G05
G00X193.972Y-37.704
M15
G01X192.843Y-34.603
M16
G05
G00X200.142Y-53.704
M15
G01X199.013Y-50.603
M16
G05
G00X206.283Y-69.655
M15
G01X205.155Y-66.554
M16
G05
G00X212.442Y-35.894
M15
G01X211.313Y-32.793
M16
G05
G00X218.562Y-51.904
M15
G01X217.433Y-48.803
M16
G05
G00X224.772Y-67.854
M15
G01X223.643Y-64.753
M16
G05
G00X229.352Y-30.084
M15
G01X228.223Y-26.983
M16
G05
G00X240.082Y-58.054
M15
G01X238.953Y-54.953
M16
G05
G00X246.242Y-74.014
M15
G01X245.113Y-70.913
M16
G05
T0
M30
